<?xml version="1.0" encoding="utf-8"?>
<!-- Generator: Adobe Illustrator 23.0.1, SVG Export Plug-In . SVG Version: 6.00 Build 0)  -->
<svg version="1.1" id="Layer_1" xmlns="http://www.w3.org/2000/svg" xmlns:xlink="http://www.w3.org/1999/xlink" x="0px" y="0px"
	 viewBox="0 0 200 54" style="enable-background:new 0 0 200 54;" xml:space="preserve">
<style type="text/css">
	.st0{fill:#1B3F98;}
	.st1{fill:#999999;}
</style>
<g>
	<path class="st0" d="M21.15,21.69c0-1.97,0.29-3.62,0.88-4.96c0.44-0.98,1.04-1.87,1.8-2.65c0.76-0.78,1.59-1.36,2.5-1.74
		c1.2-0.51,2.59-0.76,4.17-0.76c2.85,0,5.13,0.88,6.84,2.65c1.71,1.77,2.56,4.22,2.56,7.37c0,3.12-0.85,5.56-2.54,7.32
		c-1.7,1.76-3.96,2.64-6.8,2.64c-2.87,0-5.16-0.88-6.86-2.63C22,27.18,21.15,24.77,21.15,21.69z M25.17,21.56
		c0,2.19,0.51,3.85,1.52,4.98c1.01,1.13,2.29,1.69,3.85,1.69s2.83-0.56,3.83-1.68c1-1.12,1.5-2.8,1.5-5.04
		c0-2.21-0.49-3.87-1.46-4.96c-0.97-1.09-2.26-1.63-3.87-1.63s-2.9,0.55-3.89,1.65C25.67,17.67,25.17,19.33,25.17,21.56z"/>
	<path class="st0" d="M41.57,15.33v-3.43h3.71v3.43H41.57z M41.57,31.23v-14h3.71v14H41.57z"/>
	<path class="st0" d="M46.41,27.24l3.72-0.57c0.16,0.72,0.48,1.27,0.96,1.64c0.48,0.37,1.16,0.56,2.03,0.56
		c0.96,0,1.68-0.18,2.16-0.53c0.32-0.25,0.49-0.58,0.49-0.99c0-0.28-0.09-0.51-0.26-0.7c-0.18-0.18-0.6-0.34-1.24-0.49
		c-2.99-0.66-4.88-1.26-5.68-1.81c-1.11-0.76-1.66-1.81-1.66-3.15c0-1.21,0.48-2.23,1.44-3.06s2.44-1.24,4.46-1.24
		c1.92,0,3.34,0.31,4.27,0.94s1.57,1.55,1.92,2.77l-3.49,0.65c-0.15-0.54-0.43-0.96-0.85-1.25c-0.42-0.29-1.01-0.44-1.79-0.44
		c-0.97,0-1.67,0.14-2.1,0.41c-0.28,0.19-0.42,0.44-0.42,0.75c0,0.26,0.12,0.49,0.37,0.67c0.33,0.25,1.49,0.59,3.46,1.04
		c1.97,0.45,3.35,1,4.13,1.65c0.77,0.66,1.16,1.58,1.16,2.76c0,1.28-0.54,2.39-1.61,3.31c-1.07,0.92-2.66,1.38-4.76,1.38
		c-1.91,0-3.42-0.39-4.53-1.16C47.48,29.62,46.76,28.57,46.41,27.24z"/>
	<path class="st0" d="M59.63,17.23h3.94l3.35,9.94l3.27-9.94h3.84l-4.94,13.47l-0.88,2.44c-0.33,0.82-0.63,1.44-0.93,1.87
		c-0.29,0.43-0.63,0.78-1.01,1.05c-0.38,0.27-0.85,0.48-1.41,0.63c-0.56,0.15-1.19,0.22-1.89,0.22c-0.71,0-1.41-0.07-2.1-0.22
		l-0.33-2.9c0.58,0.11,1.1,0.17,1.57,0.17c0.86,0,1.5-0.25,1.91-0.76c0.41-0.5,0.73-1.15,0.95-1.93L59.63,17.23z"/>
	<path class="st0" d="M78.74,11.91v7.11c1.2-1.4,2.62-2.1,4.29-2.1c0.85,0,1.62,0.16,2.31,0.47s1.2,0.72,1.55,1.21
		c0.35,0.49,0.58,1.04,0.71,1.63c0.13,0.6,0.19,1.52,0.19,2.78v8.21h-3.71v-7.4c0-1.47-0.07-2.4-0.21-2.79s-0.39-0.71-0.75-0.94
		c-0.36-0.23-0.8-0.35-1.34-0.35c-0.62,0-1.17,0.15-1.65,0.45c-0.48,0.3-0.84,0.75-1.06,1.35c-0.22,0.6-0.34,1.49-0.34,2.67v7.01
		h-3.7V11.91H78.74z"/>
	<path class="st0" d="M90.09,17.23h3.46v2.06c0.45-0.7,1.05-1.27,1.82-1.71c0.77-0.44,1.61-0.66,2.54-0.66
		c1.63,0,3.01,0.64,4.14,1.91s1.7,3.05,1.7,5.33c0,2.34-0.57,4.15-1.71,5.45c-1.14,1.3-2.53,1.94-4.15,1.94
		c-0.77,0-1.47-0.15-2.1-0.46c-0.63-0.31-1.29-0.83-1.98-1.58v7.05h-3.71V17.23z M93.75,24c0,1.57,0.31,2.74,0.94,3.49
		c0.62,0.75,1.38,1.13,2.28,1.13c0.86,0,1.58-0.35,2.15-1.04c0.57-0.69,0.86-1.82,0.86-3.4c0-1.47-0.29-2.56-0.88-3.27
		s-1.32-1.07-2.19-1.07c-0.91,0-1.66,0.35-2.25,1.05C94.05,21.59,93.75,22.63,93.75,24z"/>
	<path class="st0" d="M105.34,31.23v-3.7h3.71v3.7H105.34z"/>
	<path class="st0" d="M123.7,21.37l-3.65,0.66c-0.12-0.73-0.4-1.28-0.84-1.65c-0.44-0.37-1-0.55-1.69-0.55
		c-0.92,0-1.66,0.32-2.21,0.96c-0.55,0.64-0.82,1.7-0.82,3.2c0,1.66,0.28,2.83,0.84,3.52c0.56,0.69,1.31,1.03,2.25,1.03
		c0.7,0,1.28-0.2,1.73-0.6c0.45-0.4,0.77-1.09,0.95-2.06l3.64,0.62c-0.38,1.67-1.1,2.93-2.17,3.78c-1.07,0.85-2.51,1.28-4.31,1.28
		c-2.05,0-3.68-0.65-4.9-1.94c-1.22-1.29-1.83-3.08-1.83-5.37c0-2.31,0.61-4.11,1.83-5.4s2.87-1.93,4.96-1.93
		c1.71,0,3.06,0.37,4.07,1.1C122.53,18.75,123.26,19.87,123.7,21.37z"/>
	<path class="st0" d="M124.3,24.04c0-1.23,0.3-2.42,0.91-3.57c0.61-1.15,1.47-2.03,2.58-2.64c1.11-0.61,2.35-0.91,3.72-0.91
		c2.12,0,3.85,0.69,5.21,2.06s2.03,3.11,2.03,5.21c0,2.12-0.68,3.87-2.05,5.27c-1.37,1.39-3.09,2.09-5.16,2.09
		c-1.28,0-2.51-0.29-3.67-0.87c-1.17-0.58-2.05-1.43-2.66-2.55C124.6,27.01,124.3,25.64,124.3,24.04z M128.09,24.23
		c0,1.39,0.33,2.45,0.99,3.19c0.66,0.74,1.47,1.11,2.44,1.11s1.78-0.37,2.43-1.11c0.65-0.74,0.98-1.81,0.98-3.22
		c0-1.37-0.33-2.43-0.98-3.16c-0.66-0.74-1.47-1.11-2.43-1.11s-1.78,0.37-2.44,1.11C128.42,21.78,128.09,22.85,128.09,24.23z"/>
	<path class="st0" d="M140.3,31.23v-3.7H144v3.7H140.3z"/>
	<path class="st0" d="M155.66,31.23v-2.1c-0.51,0.75-1.18,1.34-2.01,1.77c-0.83,0.43-1.71,0.65-2.63,0.65
		c-0.94,0-1.78-0.21-2.53-0.62c-0.75-0.41-1.29-0.99-1.62-1.74s-0.5-1.78-0.5-3.1v-8.86h3.7v6.43c0,1.97,0.07,3.18,0.2,3.62
		c0.14,0.44,0.38,0.8,0.75,1.05s0.82,0.39,1.37,0.39c0.63,0,1.2-0.17,1.7-0.52c0.5-0.35,0.84-0.78,1.03-1.29
		c0.18-0.51,0.28-1.77,0.28-3.78v-5.91h3.7v14H155.66z"/>
	<path class="st0" d="M161.46,31.23V11.91h3.7v10.26l4.34-4.93h4.56l-4.79,5.12l5.13,8.89h-3.99l-3.52-6.29l-1.73,1.81v4.48H161.46z
		"/>
</g>
<g>
	<path class="st1" d="M67.51,47.17v-5.5h0.61v0.52c0.14-0.2,0.31-0.35,0.49-0.45c0.18-0.1,0.4-0.15,0.66-0.15
		c0.34,0,0.64,0.09,0.9,0.26c0.26,0.17,0.46,0.42,0.59,0.74c0.13,0.32,0.2,0.67,0.2,1.05c0,0.41-0.07,0.77-0.22,1.1
		c-0.15,0.33-0.36,0.58-0.64,0.75c-0.28,0.17-0.57,0.26-0.88,0.26c-0.22,0-0.43-0.05-0.6-0.14s-0.33-0.21-0.44-0.36v1.93H67.51z
		 M68.12,43.68c0,0.51,0.1,0.89,0.31,1.13c0.21,0.24,0.46,0.37,0.75,0.37c0.3,0,0.56-0.13,0.77-0.38s0.32-0.65,0.32-1.18
		c0-0.51-0.1-0.88-0.31-1.14c-0.21-0.25-0.46-0.38-0.75-0.38c-0.29,0-0.54,0.13-0.76,0.4C68.23,42.78,68.12,43.17,68.12,43.68z"/>
	<path class="st1" d="M71.38,45.64v-5.48h0.67v1.97c0.31-0.36,0.71-0.55,1.19-0.55c0.29,0,0.55,0.06,0.77,0.17
		c0.22,0.12,0.37,0.28,0.47,0.48c0.09,0.2,0.14,0.5,0.14,0.89v2.52h-0.67v-2.52c0-0.34-0.07-0.58-0.22-0.74
		c-0.15-0.15-0.35-0.23-0.62-0.23c-0.2,0-0.39,0.05-0.56,0.16c-0.18,0.1-0.3,0.24-0.38,0.42c-0.07,0.18-0.11,0.42-0.11,0.73v2.17
		H71.38z"/>
	<path class="st1" d="M75.23,47.17l-0.07-0.63c0.15,0.04,0.28,0.06,0.39,0.06c0.15,0,0.27-0.03,0.36-0.08
		c0.09-0.05,0.16-0.12,0.22-0.21c0.04-0.07,0.11-0.24,0.21-0.5c0.01-0.04,0.03-0.09,0.06-0.16l-1.51-3.98h0.73l0.83,2.3
		c0.11,0.29,0.2,0.6,0.29,0.92c0.08-0.31,0.17-0.61,0.28-0.91l0.85-2.32h0.67l-1.51,4.04c-0.16,0.44-0.29,0.74-0.38,0.9
		c-0.12,0.22-0.26,0.38-0.41,0.49s-0.34,0.16-0.55,0.16C75.54,47.26,75.39,47.23,75.23,47.17z"/>
	<path class="st1" d="M78.44,44.46l0.67-0.11c0.04,0.27,0.14,0.47,0.31,0.61c0.17,0.14,0.41,0.21,0.72,0.21
		c0.31,0,0.54-0.06,0.69-0.19c0.15-0.13,0.22-0.27,0.22-0.44c0-0.15-0.07-0.27-0.2-0.36c-0.09-0.06-0.32-0.14-0.69-0.23
		c-0.49-0.13-0.84-0.23-1.03-0.32c-0.19-0.09-0.34-0.22-0.43-0.38c-0.1-0.16-0.15-0.34-0.15-0.53c0-0.18,0.04-0.34,0.12-0.49
		c0.08-0.15,0.19-0.28,0.33-0.38c0.1-0.08,0.25-0.14,0.43-0.2s0.37-0.08,0.58-0.08c0.31,0,0.59,0.04,0.82,0.13
		c0.24,0.09,0.41,0.21,0.52,0.37s0.19,0.36,0.23,0.62l-0.66,0.09c-0.03-0.2-0.12-0.36-0.26-0.48c-0.14-0.12-0.35-0.17-0.61-0.17
		c-0.31,0-0.53,0.05-0.66,0.15c-0.13,0.1-0.2,0.22-0.2,0.36c0,0.09,0.03,0.17,0.08,0.24c0.06,0.07,0.14,0.13,0.26,0.18
		c0.07,0.02,0.27,0.08,0.59,0.17c0.48,0.13,0.81,0.23,1,0.31s0.34,0.2,0.44,0.35c0.11,0.15,0.16,0.35,0.16,0.58
		c0,0.22-0.07,0.44-0.2,0.63c-0.13,0.2-0.32,0.35-0.57,0.46c-0.25,0.11-0.53,0.16-0.84,0.16c-0.52,0-0.91-0.11-1.18-0.32
		C78.69,45.2,78.52,44.88,78.44,44.46z"/>
	<path class="st1" d="M82.16,40.93v-0.77h0.67v0.77H82.16z M82.16,45.64v-3.97h0.67v3.97H82.16z"/>
	<path class="st1" d="M83.23,43.66c0-0.74,0.2-1.28,0.61-1.63c0.34-0.29,0.76-0.44,1.25-0.44c0.55,0,0.99,0.18,1.34,0.54
		c0.35,0.36,0.52,0.85,0.52,1.48c0,0.51-0.08,0.91-0.23,1.21s-0.38,0.52-0.67,0.68s-0.61,0.24-0.96,0.24
		c-0.56,0-1.01-0.18-1.35-0.54S83.23,44.33,83.23,43.66z M83.92,43.66c0,0.51,0.11,0.89,0.33,1.14c0.22,0.25,0.5,0.38,0.84,0.38
		c0.33,0,0.61-0.13,0.83-0.38c0.22-0.25,0.33-0.64,0.33-1.16c0-0.49-0.11-0.86-0.33-1.12c-0.22-0.25-0.5-0.38-0.83-0.38
		c-0.34,0-0.62,0.13-0.84,0.38C84.03,42.77,83.92,43.15,83.92,43.66z"/>
	<path class="st1" d="M88.83,45.04l0.1,0.59c-0.19,0.04-0.36,0.06-0.51,0.06c-0.24,0-0.43-0.04-0.57-0.12s-0.23-0.18-0.28-0.3
		s-0.08-0.39-0.08-0.79V42.2h-0.49v-0.52h0.49v-0.98l0.67-0.4v1.39h0.68v0.52h-0.68v2.32c0,0.19,0.01,0.32,0.04,0.37
		c0.02,0.05,0.06,0.1,0.12,0.13c0.05,0.03,0.13,0.05,0.23,0.05C88.6,45.07,88.7,45.06,88.83,45.04z"/>
	<path class="st1" d="M89.1,45.64v-5.48h0.67v1.97c0.31-0.36,0.71-0.55,1.19-0.55c0.29,0,0.55,0.06,0.77,0.17
		c0.22,0.12,0.37,0.28,0.47,0.48c0.09,0.2,0.14,0.5,0.14,0.89v2.52h-0.67v-2.52c0-0.34-0.07-0.58-0.22-0.74
		c-0.15-0.15-0.35-0.23-0.62-0.23c-0.2,0-0.39,0.05-0.56,0.16s-0.3,0.24-0.38,0.42c-0.08,0.18-0.11,0.42-0.11,0.73v2.17H89.1z"/>
	<path class="st1" d="M95.7,44.37l0.7,0.09c-0.11,0.41-0.31,0.72-0.61,0.95s-0.68,0.34-1.14,0.34c-0.58,0-1.04-0.18-1.38-0.54
		c-0.34-0.36-0.51-0.86-0.51-1.51c0-0.67,0.17-1.19,0.52-1.56c0.34-0.37,0.79-0.55,1.34-0.55c0.53,0,0.96,0.18,1.3,0.54
		s0.5,0.87,0.5,1.53c0,0.04,0,0.1,0,0.18h-2.96c0.02,0.44,0.15,0.77,0.37,1c0.22,0.23,0.5,0.35,0.83,0.35
		c0.25,0,0.46-0.06,0.63-0.19S95.6,44.65,95.7,44.37z M93.49,43.28h2.22c-0.03-0.33-0.11-0.58-0.25-0.75
		c-0.21-0.26-0.49-0.39-0.83-0.39c-0.31,0-0.57,0.1-0.78,0.31C93.63,42.65,93.51,42.93,93.49,43.28z"/>
	<path class="st1" d="M96.85,45.64v-3.97h0.61v0.6c0.15-0.28,0.3-0.47,0.43-0.56s0.27-0.13,0.43-0.13c0.23,0,0.46,0.07,0.69,0.22
		l-0.23,0.62c-0.17-0.1-0.33-0.15-0.49-0.15c-0.15,0-0.28,0.04-0.4,0.13s-0.2,0.21-0.25,0.37c-0.08,0.24-0.11,0.5-0.11,0.79v2.08
		H96.85z"/>
	<path class="st1" d="M101.62,45.15c-0.25,0.21-0.49,0.36-0.72,0.45c-0.23,0.09-0.48,0.13-0.74,0.13c-0.44,0-0.77-0.11-1.01-0.32
		c-0.23-0.21-0.35-0.49-0.35-0.82c0-0.19,0.04-0.37,0.13-0.53c0.09-0.16,0.21-0.29,0.35-0.39c0.14-0.1,0.3-0.17,0.48-0.22
		c0.13-0.04,0.33-0.07,0.6-0.1c0.54-0.06,0.94-0.14,1.2-0.23c0-0.09,0-0.15,0-0.18c0-0.27-0.06-0.47-0.19-0.58
		c-0.17-0.15-0.43-0.23-0.77-0.23c-0.32,0-0.55,0.06-0.7,0.17c-0.15,0.11-0.26,0.31-0.33,0.59l-0.66-0.09
		c0.06-0.28,0.16-0.51,0.3-0.68c0.14-0.17,0.33-0.31,0.59-0.4s0.56-0.14,0.9-0.14c0.34,0,0.62,0.04,0.83,0.12s0.37,0.18,0.47,0.3
		c0.1,0.12,0.17,0.27,0.21,0.46c0.02,0.11,0.03,0.32,0.03,0.62v0.9c0,0.63,0.01,1.02,0.04,1.19c0.03,0.17,0.08,0.32,0.17,0.48h-0.7
		C101.68,45.5,101.64,45.34,101.62,45.15z M101.56,43.65c-0.25,0.1-0.61,0.18-1.1,0.25c-0.28,0.04-0.47,0.08-0.59,0.13
		c-0.12,0.05-0.2,0.12-0.27,0.22c-0.06,0.1-0.09,0.2-0.09,0.32c0,0.18,0.07,0.33,0.2,0.45c0.14,0.12,0.33,0.18,0.6,0.18
		c0.26,0,0.49-0.06,0.69-0.17c0.2-0.11,0.35-0.27,0.45-0.47c0.07-0.15,0.11-0.38,0.11-0.67V43.65z"/>
	<path class="st1" d="M102.9,47.17v-5.5h0.61v0.52c0.15-0.2,0.31-0.35,0.49-0.45c0.18-0.1,0.4-0.15,0.66-0.15
		c0.34,0,0.64,0.09,0.9,0.26c0.26,0.17,0.46,0.42,0.59,0.74c0.13,0.32,0.2,0.67,0.2,1.05c0,0.41-0.07,0.77-0.22,1.1
		c-0.15,0.33-0.36,0.58-0.64,0.75c-0.28,0.17-0.57,0.26-0.88,0.26c-0.22,0-0.43-0.05-0.6-0.14c-0.18-0.09-0.33-0.21-0.44-0.36v1.93
		H102.9z M103.51,43.68c0,0.51,0.1,0.89,0.31,1.13c0.21,0.24,0.46,0.37,0.75,0.37c0.3,0,0.56-0.13,0.77-0.38s0.32-0.65,0.32-1.18
		c0-0.51-0.1-0.88-0.31-1.14c-0.21-0.25-0.46-0.38-0.75-0.38c-0.29,0-0.54,0.13-0.76,0.4C103.62,42.78,103.51,43.17,103.51,43.68z"
		/>
	<path class="st1" d="M106.75,47.17l-0.08-0.63c0.15,0.04,0.28,0.06,0.39,0.06c0.15,0,0.27-0.03,0.36-0.08s0.16-0.12,0.22-0.21
		c0.04-0.07,0.11-0.24,0.21-0.5c0.01-0.04,0.03-0.09,0.06-0.16l-1.51-3.98h0.73l0.83,2.3c0.11,0.29,0.2,0.6,0.29,0.92
		c0.08-0.31,0.17-0.61,0.28-0.91l0.85-2.32h0.67l-1.51,4.04c-0.16,0.44-0.29,0.74-0.38,0.9c-0.12,0.22-0.26,0.38-0.41,0.49
		s-0.34,0.16-0.55,0.16C107.06,47.26,106.91,47.23,106.75,47.17z"/>
	<path class="st1" d="M113.45,45.04l0.1,0.59c-0.19,0.04-0.36,0.06-0.51,0.06c-0.24,0-0.43-0.04-0.57-0.12s-0.23-0.18-0.28-0.3
		s-0.08-0.39-0.08-0.79V42.2h-0.49v-0.52h0.49v-0.98l0.67-0.4v1.39h0.68v0.52h-0.68v2.32c0,0.19,0.01,0.32,0.04,0.37
		c0.02,0.05,0.06,0.1,0.12,0.13c0.05,0.03,0.13,0.05,0.23,0.05C113.23,45.07,113.32,45.06,113.45,45.04z"/>
	<path class="st1" d="M113.71,45.64v-3.97h0.61v0.6c0.15-0.28,0.3-0.47,0.43-0.56s0.27-0.13,0.43-0.13c0.23,0,0.46,0.07,0.69,0.22
		l-0.23,0.62c-0.17-0.1-0.33-0.15-0.49-0.15c-0.15,0-0.28,0.04-0.4,0.13s-0.2,0.21-0.25,0.37c-0.08,0.24-0.11,0.5-0.11,0.79v2.08
		H113.71z"/>
	<path class="st1" d="M118.61,44.37l0.7,0.09c-0.11,0.41-0.31,0.72-0.61,0.95s-0.68,0.34-1.14,0.34c-0.58,0-1.04-0.18-1.38-0.54
		c-0.34-0.36-0.51-0.86-0.51-1.51c0-0.67,0.17-1.19,0.52-1.56c0.34-0.37,0.79-0.55,1.34-0.55c0.53,0,0.96,0.18,1.3,0.54
		s0.5,0.87,0.5,1.53c0,0.04,0,0.1,0,0.18h-2.96c0.02,0.44,0.15,0.77,0.37,1c0.22,0.23,0.5,0.35,0.83,0.35
		c0.25,0,0.46-0.06,0.63-0.19S118.51,44.65,118.61,44.37z M116.4,43.28h2.22c-0.03-0.33-0.11-0.58-0.25-0.75
		c-0.21-0.26-0.49-0.39-0.83-0.39c-0.31,0-0.57,0.1-0.78,0.31C116.54,42.65,116.42,42.93,116.4,43.28z"/>
	<path class="st1" d="M122.36,45.15c-0.25,0.21-0.49,0.36-0.72,0.45c-0.23,0.09-0.48,0.13-0.74,0.13c-0.44,0-0.77-0.11-1.01-0.32
		c-0.23-0.21-0.35-0.49-0.35-0.82c0-0.19,0.04-0.37,0.13-0.53c0.09-0.16,0.21-0.29,0.35-0.39c0.14-0.1,0.3-0.17,0.48-0.22
		c0.13-0.04,0.33-0.07,0.6-0.1c0.54-0.06,0.94-0.14,1.2-0.23c0-0.09,0-0.15,0-0.18c0-0.27-0.06-0.47-0.19-0.58
		c-0.17-0.15-0.43-0.23-0.77-0.23c-0.32,0-0.55,0.06-0.7,0.17c-0.15,0.11-0.26,0.31-0.33,0.59l-0.66-0.09
		c0.06-0.28,0.16-0.51,0.3-0.68c0.14-0.17,0.33-0.31,0.59-0.4s0.56-0.14,0.9-0.14c0.34,0,0.62,0.04,0.83,0.12s0.37,0.18,0.47,0.3
		c0.1,0.12,0.17,0.27,0.21,0.46c0.02,0.11,0.03,0.32,0.03,0.62v0.9c0,0.63,0.01,1.02,0.04,1.19c0.03,0.17,0.08,0.32,0.17,0.48h-0.7
		C122.42,45.5,122.38,45.34,122.36,45.15z M122.3,43.65c-0.25,0.1-0.61,0.18-1.1,0.25c-0.28,0.04-0.47,0.08-0.59,0.13
		c-0.12,0.05-0.2,0.12-0.27,0.22c-0.06,0.1-0.09,0.2-0.09,0.32c0,0.18,0.07,0.33,0.2,0.45c0.14,0.12,0.33,0.18,0.6,0.18
		c0.26,0,0.49-0.06,0.69-0.17c0.2-0.11,0.35-0.27,0.45-0.47c0.07-0.15,0.11-0.38,0.11-0.67V43.65z"/>
	<path class="st1" d="M125.12,45.04l0.1,0.59c-0.19,0.04-0.36,0.06-0.51,0.06c-0.24,0-0.43-0.04-0.57-0.12s-0.23-0.18-0.28-0.3
		s-0.08-0.39-0.08-0.79V42.2h-0.49v-0.52h0.49v-0.98l0.67-0.4v1.39h0.68v0.52h-0.68v2.32c0,0.19,0.01,0.32,0.04,0.37
		c0.02,0.05,0.06,0.1,0.12,0.13c0.05,0.03,0.13,0.05,0.23,0.05C124.9,45.07,124.99,45.06,125.12,45.04z"/>
	<path class="st1" d="M125.39,45.64v-3.97h0.6v0.56c0.13-0.19,0.29-0.35,0.5-0.47c0.21-0.12,0.44-0.18,0.71-0.18
		c0.29,0,0.54,0.06,0.72,0.18s0.32,0.29,0.4,0.51c0.31-0.46,0.72-0.7,1.23-0.7c0.39,0,0.7,0.11,0.91,0.33
		c0.21,0.22,0.32,0.55,0.32,1.01v2.73h-0.67v-2.5c0-0.27-0.02-0.46-0.07-0.58c-0.04-0.12-0.12-0.21-0.24-0.29
		c-0.12-0.07-0.25-0.11-0.4-0.11c-0.28,0-0.51,0.09-0.7,0.28c-0.18,0.19-0.28,0.48-0.28,0.89v2.31h-0.67v-2.58
		c0-0.3-0.06-0.52-0.17-0.67s-0.29-0.22-0.54-0.22c-0.19,0-0.36,0.05-0.53,0.15c-0.16,0.1-0.28,0.25-0.35,0.44
		c-0.07,0.19-0.11,0.47-0.11,0.83v2.06H125.39z"/>
	<path class="st1" d="M134.11,44.37l0.7,0.09c-0.11,0.41-0.31,0.72-0.61,0.95s-0.68,0.34-1.14,0.34c-0.58,0-1.04-0.18-1.38-0.54
		c-0.34-0.36-0.51-0.86-0.51-1.51c0-0.67,0.17-1.19,0.52-1.56c0.34-0.37,0.79-0.55,1.34-0.55c0.53,0,0.96,0.18,1.3,0.54
		s0.5,0.87,0.5,1.53c0,0.04,0,0.1,0,0.18h-2.96c0.02,0.44,0.15,0.77,0.37,1c0.22,0.23,0.5,0.35,0.83,0.35
		c0.25,0,0.46-0.06,0.63-0.19S134.01,44.65,134.11,44.37z M131.9,43.28h2.22c-0.03-0.33-0.11-0.58-0.25-0.75
		c-0.21-0.26-0.49-0.39-0.83-0.39c-0.31,0-0.57,0.1-0.78,0.31C132.04,42.65,131.92,42.93,131.9,43.28z"/>
	<path class="st1" d="M135.27,45.64v-3.97h0.61v0.57c0.29-0.44,0.71-0.66,1.26-0.66c0.24,0,0.46,0.04,0.66,0.13
		c0.2,0.09,0.35,0.2,0.45,0.34c0.1,0.14,0.17,0.31,0.21,0.5c0.03,0.13,0.04,0.34,0.04,0.65v2.44h-0.67v-2.42
		c0-0.27-0.03-0.48-0.08-0.62c-0.05-0.14-0.14-0.24-0.28-0.33s-0.29-0.12-0.47-0.12c-0.29,0-0.53,0.09-0.74,0.27
		c-0.21,0.18-0.31,0.53-0.31,1.04v2.17H135.27z"/>
	<path class="st1" d="M140.62,45.04l0.1,0.59c-0.19,0.04-0.36,0.06-0.51,0.06c-0.24,0-0.43-0.04-0.57-0.12s-0.23-0.18-0.28-0.3
		s-0.08-0.39-0.08-0.79V42.2h-0.49v-0.52h0.49v-0.98l0.67-0.4v1.39h0.68v0.52h-0.68v2.32c0,0.19,0.01,0.32,0.04,0.37
		c0.02,0.05,0.06,0.1,0.12,0.13c0.05,0.03,0.13,0.05,0.23,0.05C140.4,45.07,140.5,45.06,140.62,45.04z"/>
	<path class="st1" d="M140.62,44.46l0.67-0.11c0.04,0.27,0.14,0.47,0.31,0.61c0.17,0.14,0.41,0.21,0.72,0.21
		c0.31,0,0.54-0.06,0.69-0.19c0.15-0.13,0.22-0.27,0.22-0.44c0-0.15-0.07-0.27-0.2-0.36c-0.09-0.06-0.32-0.14-0.69-0.23
		c-0.49-0.13-0.84-0.23-1.03-0.32c-0.19-0.09-0.34-0.22-0.43-0.38c-0.1-0.16-0.15-0.34-0.15-0.53c0-0.18,0.04-0.34,0.12-0.49
		c0.08-0.15,0.19-0.28,0.33-0.38c0.1-0.08,0.25-0.14,0.43-0.2c0.18-0.05,0.38-0.08,0.58-0.08c0.31,0,0.59,0.04,0.82,0.13
		s0.41,0.21,0.52,0.37c0.11,0.15,0.19,0.36,0.23,0.62l-0.66,0.09c-0.03-0.2-0.12-0.36-0.26-0.48c-0.14-0.12-0.35-0.17-0.61-0.17
		c-0.31,0-0.53,0.05-0.66,0.15c-0.13,0.1-0.2,0.22-0.2,0.36c0,0.09,0.03,0.17,0.08,0.24c0.05,0.07,0.14,0.13,0.26,0.18
		c0.07,0.02,0.27,0.08,0.59,0.17c0.48,0.13,0.81,0.23,1,0.31c0.19,0.08,0.34,0.2,0.44,0.35c0.11,0.15,0.16,0.35,0.16,0.58
		c0,0.22-0.07,0.44-0.2,0.63s-0.32,0.35-0.57,0.46s-0.53,0.16-0.84,0.16c-0.52,0-0.91-0.11-1.18-0.32
		C140.87,45.2,140.7,44.88,140.62,44.46z"/>
	<path class="st1" d="M148.68,45.15c-0.25,0.21-0.49,0.36-0.72,0.45c-0.23,0.09-0.48,0.13-0.74,0.13c-0.44,0-0.77-0.11-1.01-0.32
		c-0.23-0.21-0.35-0.49-0.35-0.82c0-0.19,0.04-0.37,0.13-0.53c0.09-0.16,0.21-0.29,0.35-0.39c0.14-0.1,0.3-0.17,0.48-0.22
		c0.13-0.04,0.33-0.07,0.6-0.1c0.54-0.06,0.94-0.14,1.2-0.23c0-0.09,0-0.15,0-0.18c0-0.27-0.06-0.47-0.19-0.58
		c-0.17-0.15-0.43-0.23-0.77-0.23c-0.32,0-0.55,0.06-0.7,0.17c-0.15,0.11-0.26,0.31-0.33,0.59l-0.66-0.09
		c0.06-0.28,0.16-0.51,0.3-0.68c0.14-0.17,0.33-0.31,0.59-0.4s0.56-0.14,0.9-0.14c0.34,0,0.62,0.04,0.83,0.12s0.37,0.18,0.47,0.3
		c0.1,0.12,0.17,0.27,0.21,0.46c0.02,0.11,0.03,0.32,0.03,0.62v0.9c0,0.63,0.01,1.02,0.04,1.19c0.03,0.17,0.08,0.32,0.17,0.48h-0.7
		C148.74,45.5,148.7,45.34,148.68,45.15z M148.62,43.65c-0.25,0.1-0.61,0.18-1.1,0.25c-0.28,0.04-0.47,0.08-0.59,0.13
		c-0.12,0.05-0.2,0.12-0.27,0.22c-0.06,0.1-0.09,0.2-0.09,0.32c0,0.18,0.07,0.33,0.2,0.45c0.14,0.12,0.33,0.18,0.6,0.18
		c0.26,0,0.49-0.06,0.69-0.17c0.2-0.11,0.35-0.27,0.45-0.47c0.07-0.15,0.11-0.38,0.11-0.67V43.65z"/>
	<path class="st1" d="M149.96,45.64v-3.97h0.61v0.57c0.29-0.44,0.71-0.66,1.26-0.66c0.24,0,0.46,0.04,0.66,0.13
		c0.2,0.09,0.35,0.2,0.45,0.34c0.1,0.14,0.17,0.31,0.21,0.5c0.03,0.13,0.04,0.34,0.04,0.65v2.44h-0.67v-2.42
		c0-0.27-0.03-0.48-0.08-0.62c-0.05-0.14-0.14-0.24-0.28-0.33s-0.29-0.12-0.47-0.12c-0.29,0-0.53,0.09-0.74,0.27
		c-0.21,0.18-0.31,0.53-0.31,1.04v2.17H149.96z"/>
	<path class="st1" d="M156.42,45.64v-0.5c-0.25,0.39-0.62,0.59-1.11,0.59c-0.32,0-0.61-0.09-0.87-0.26s-0.47-0.42-0.62-0.73
		c-0.15-0.31-0.22-0.67-0.22-1.08c0-0.4,0.07-0.76,0.2-1.08c0.13-0.32,0.33-0.57,0.59-0.74c0.26-0.17,0.56-0.26,0.89-0.26
		c0.24,0,0.45,0.05,0.64,0.15c0.19,0.1,0.34,0.23,0.46,0.39v-1.97h0.67v5.48H156.42z M154.29,43.66c0,0.51,0.11,0.89,0.32,1.14
		c0.21,0.25,0.47,0.38,0.76,0.38c0.29,0,0.54-0.12,0.75-0.36c0.21-0.24,0.31-0.61,0.31-1.1c0-0.54-0.1-0.94-0.31-1.2
		c-0.21-0.25-0.47-0.38-0.77-0.38c-0.3,0-0.55,0.12-0.75,0.37C154.39,42.75,154.29,43.14,154.29,43.66z"/>
	<path class="st1" d="M159.47,45.64v-3.97h0.6v0.56c0.13-0.19,0.29-0.35,0.5-0.47c0.21-0.12,0.44-0.18,0.71-0.18
		c0.29,0,0.54,0.06,0.72,0.18s0.32,0.29,0.4,0.51c0.31-0.46,0.72-0.7,1.23-0.7c0.39,0,0.7,0.11,0.91,0.33
		c0.21,0.22,0.32,0.55,0.32,1.01v2.73h-0.67v-2.5c0-0.27-0.02-0.46-0.07-0.58c-0.04-0.12-0.12-0.21-0.24-0.29
		c-0.12-0.07-0.25-0.11-0.4-0.11c-0.28,0-0.51,0.09-0.7,0.28c-0.18,0.19-0.28,0.48-0.28,0.89v2.31h-0.67v-2.58
		c0-0.3-0.06-0.52-0.17-0.67s-0.29-0.22-0.54-0.22c-0.19,0-0.36,0.05-0.53,0.15c-0.16,0.1-0.28,0.25-0.35,0.44
		c-0.07,0.19-0.11,0.47-0.11,0.83v2.06H159.47z"/>
	<path class="st1" d="M165.22,43.66c0-0.74,0.2-1.28,0.61-1.63c0.34-0.29,0.76-0.44,1.25-0.44c0.55,0,0.99,0.18,1.34,0.54
		c0.35,0.36,0.52,0.85,0.52,1.48c0,0.51-0.08,0.91-0.23,1.21s-0.38,0.52-0.67,0.68s-0.61,0.24-0.96,0.24
		c-0.56,0-1.01-0.18-1.35-0.54S165.22,44.33,165.22,43.66z M165.91,43.66c0,0.51,0.11,0.89,0.33,1.14c0.22,0.25,0.5,0.38,0.84,0.38
		c0.33,0,0.61-0.13,0.83-0.38c0.22-0.25,0.33-0.64,0.33-1.16c0-0.49-0.11-0.86-0.33-1.12c-0.22-0.25-0.5-0.38-0.83-0.38
		c-0.34,0-0.62,0.13-0.84,0.38C166.02,42.77,165.91,43.15,165.91,43.66z"/>
	<path class="st1" d="M169.34,45.64v-3.97h0.61v0.6c0.15-0.28,0.3-0.47,0.43-0.56s0.27-0.13,0.43-0.13c0.23,0,0.46,0.07,0.69,0.22
		l-0.23,0.62c-0.17-0.1-0.33-0.15-0.49-0.15c-0.15,0-0.28,0.04-0.4,0.13s-0.2,0.21-0.25,0.37c-0.08,0.24-0.11,0.5-0.11,0.79v2.08
		H169.34z"/>
	<path class="st1" d="M174.23,44.37l0.7,0.09c-0.11,0.41-0.31,0.72-0.61,0.95s-0.68,0.34-1.14,0.34c-0.58,0-1.04-0.18-1.38-0.54
		c-0.34-0.36-0.51-0.86-0.51-1.51c0-0.67,0.17-1.19,0.52-1.56c0.34-0.37,0.79-0.55,1.34-0.55c0.53,0,0.96,0.18,1.3,0.54
		s0.5,0.87,0.5,1.53c0,0.04,0,0.1,0,0.18h-2.96c0.02,0.44,0.15,0.77,0.37,1c0.22,0.23,0.5,0.35,0.83,0.35
		c0.25,0,0.46-0.06,0.63-0.19S174.13,44.65,174.23,44.37z M172.02,43.28h2.22c-0.03-0.33-0.11-0.58-0.25-0.75
		c-0.21-0.26-0.49-0.39-0.83-0.39c-0.31,0-0.57,0.1-0.78,0.31C172.16,42.65,172.04,42.93,172.02,43.28z"/>
</g>
</svg>
